<?xml version="1.0" encoding="utf-8" ?>
<svg baseProfile="full" height="120" version="1.1" width="200" xmlns="http://www.w3.org/2000/svg" xmlns:ev="http://www.w3.org/2001/xml-events" xmlns:xlink="http://www.w3.org/1999/xlink"><defs /><rect fill="#c06000" height="24" stroke="lightgray" width="36" x="0" y="0" /><text fill="#ffffff" style="text-anchor:middle; dominant-baseline:central" x="18.0" y="12.0">3V3</text><rect fill="#ffffff" height="24" stroke="lightgray" width="36" x="0" y="24" /><text fill="#000000" style="text-anchor:middle; dominant-baseline:central" x="18.0" y="36.0">G22</text><rect fill="#ffffff" height="24" stroke="lightgray" width="36" x="164" y="24" /><text fill="#000000" style="text-anchor:middle; dominant-baseline:central" x="182.0" y="36.0">G21</text><rect fill="#ff1010" height="24" stroke="lightgray" width="64" x="100" y="24" /><text fill="#ffffff" style="text-anchor:middle; dominant-baseline:central" x="132.0" y="36.0">SCL</text><rect fill="#ffffff" height="24" stroke="lightgray" width="36" x="0" y="48" /><text fill="#000000" style="text-anchor:middle; dominant-baseline:central" x="18.0" y="60.0">G19</text><rect fill="#ffffff" height="24" stroke="lightgray" width="36" x="164" y="48" /><text fill="#000000" style="text-anchor:middle; dominant-baseline:central" x="182.0" y="60.0">G25</text><rect fill="#ff1010" height="24" stroke="lightgray" width="64" x="100" y="48" /><text fill="#ffffff" style="text-anchor:middle; dominant-baseline:central" x="132.0" y="60.0">SDA</text><rect fill="#ffffff" height="24" stroke="lightgray" width="36" x="0" y="72" /><text fill="#000000" style="text-anchor:middle; dominant-baseline:central" x="18.0" y="84.0">G23</text><rect fill="#e00000" height="24" stroke="lightgray" width="36" x="164" y="72" /><text fill="#ffffff" style="text-anchor:middle; dominant-baseline:central" x="182.0" y="84.0">5V</text><rect fill="#ffffff" height="24" stroke="lightgray" width="36" x="0" y="96" /><text fill="#000000" style="text-anchor:middle; dominant-baseline:central" x="18.0" y="108.0">G33</text><rect fill="black" height="24" stroke="lightgray" width="36" x="164" y="96" /><text fill="white" style="text-anchor:middle; dominant-baseline:central" x="182.0" y="108.0">GND</text></svg>