<?xml version="1.0" encoding="utf-8" ?>
<svg baseProfile="full" height="192" version="1.1" width="224" xmlns="http://www.w3.org/2000/svg" xmlns:ev="http://www.w3.org/2001/xml-events" xmlns:xlink="http://www.w3.org/1999/xlink"><defs /><rect fill="#ffffff" height="24" stroke="lightgray" width="36" x="0" y="0" /><text fill="#000000" style="text-anchor:middle; dominant-baseline:central" x="18.0" y="12.0">G25</text><rect fill="#c08080" height="24" stroke="lightgray" width="76" x="36" y="0" /><text fill="#000000" style="text-anchor:middle; dominant-baseline:central" x="74.0" y="12.0">GPIO</text><rect fill="#ffffff" height="24" stroke="lightgray" width="36" x="188" y="0" /><text fill="#000000" style="text-anchor:middle; dominant-baseline:central" x="206.0" y="12.0">G23</text><rect fill="#2080ff" height="24" stroke="lightgray" width="76" x="112" y="0" /><text fill="#000000" style="text-anchor:middle; dominant-baseline:central" x="150.0" y="12.0">MOSI</text><rect fill="#ffffff" height="24" stroke="lightgray" width="36" x="0" y="24" /><text fill="#000000" style="text-anchor:middle; dominant-baseline:central" x="18.0" y="36.0">G26</text><rect fill="#c08080" height="24" stroke="lightgray" width="76" x="36" y="24" /><text fill="#000000" style="text-anchor:middle; dominant-baseline:central" x="74.0" y="36.0">GPIO</text><rect fill="#005000" height="24" stroke="lightgray" width="36" x="188" y="24" /><text fill="#FFFFFF" style="text-anchor:middle; dominant-baseline:central" x="206.0" y="36.0">G34</text><rect fill="#2080ff" height="24" stroke="lightgray" width="76" x="112" y="24" /><text fill="#000000" style="text-anchor:middle; dominant-baseline:central" x="150.0" y="36.0">MISO</text><rect fill="#005000" height="24" stroke="lightgray" width="36" x="0" y="48" /><text fill="#FFFFFF" style="text-anchor:middle; dominant-baseline:central" x="18.0" y="60.0">G36</text><rect fill="#ffc0c0" height="24" stroke="lightgray" width="76" x="36" y="48" /><text fill="#ffffff" style="text-anchor:middle; dominant-baseline:central" x="74.0" y="60.0">ADC</text><rect fill="#ffffff" height="24" stroke="lightgray" width="36" x="188" y="48" /><text fill="#000000" style="text-anchor:middle; dominant-baseline:central" x="206.0" y="60.0">G18</text><rect fill="#2080ff" height="24" stroke="lightgray" width="76" x="112" y="48" /><text fill="#000000" style="text-anchor:middle; dominant-baseline:central" x="150.0" y="60.0">SCK</text><rect fill="#ffffff" height="24" stroke="lightgray" width="36" x="0" y="72" /><text fill="#000000" style="text-anchor:middle; dominant-baseline:central" x="18.0" y="84.0">G22</text><rect fill="#ff1010" height="24" stroke="lightgray" width="76" x="36" y="72" /><text fill="#ffffff" style="text-anchor:middle; dominant-baseline:central" x="74.0" y="84.0">SCL</text><rect fill="#ffffff" height="24" stroke="lightgray" width="36" x="188" y="72" /><text fill="#000000" style="text-anchor:middle; dominant-baseline:central" x="206.0" y="84.0">G21</text><rect fill="#ff1010" height="24" stroke="lightgray" width="76" x="112" y="72" /><text fill="#ffffff" style="text-anchor:middle; dominant-baseline:central" x="150.0" y="84.0">SDA</text><rect fill="#ffffff" height="24" stroke="lightgray" width="36" x="0" y="96" /><text fill="#000000" style="text-anchor:middle; dominant-baseline:central" x="18.0" y="108.0">G14</text><rect fill="#20a020" height="24" stroke="lightgray" width="76" x="36" y="96" /><text fill="#ffffff" style="text-anchor:middle; dominant-baseline:central" x="74.0" y="108.0">TXD2</text><rect fill="#ffffff" height="24" stroke="lightgray" width="36" x="188" y="96" /><text fill="#000000" style="text-anchor:middle; dominant-baseline:central" x="206.0" y="108.0">G13</text><rect fill="#20a020" height="24" stroke="lightgray" width="76" x="112" y="96" /><text fill="#ffffff" style="text-anchor:middle; dominant-baseline:central" x="150.0" y="108.0">RXD2</text><rect fill="#c06000" height="24" stroke="lightgray" width="112" x="0" y="120" /><text fill="#ffffff" style="text-anchor:middle; dominant-baseline:central" x="56.0" y="132.0">3V3</text><rect fill="#c0c0c0" height="24" stroke="lightgray" width="36" x="188" y="120" /><text fill="#000000" style="text-anchor:middle; dominant-baseline:central" x="206.0" y="132.0">EN</text><rect fill="#c0c0c0" height="24" stroke="lightgray" width="76" x="112" y="120" /><text fill="#000000" style="text-anchor:middle; dominant-baseline:central" x="150.0" y="132.0">RST</text><rect fill="#e00000" height="24" stroke="lightgray" width="112" x="0" y="144" /><text fill="#ffffff" style="text-anchor:middle; dominant-baseline:central" x="56.0" y="156.0">5Vout</text><rect fill="#e00000" height="24" stroke="lightgray" width="112" x="112" y="144" /><text fill="#ffffff" style="text-anchor:middle; dominant-baseline:central" x="168.0" y="156.0">5Vin</text><rect fill="#c0c000" height="24" stroke="lightgray" width="112" x="0" y="168" /><text fill="#000000" style="text-anchor:middle; dominant-baseline:central" x="56.0" y="180.0">BAT</text><rect fill="black" height="24" stroke="lightgray" width="112" x="112" y="168" /><text fill="white" style="text-anchor:middle; dominant-baseline:central" x="168.0" y="180.0">GND</text></svg>