<?xml version="1.0" encoding="utf-8" ?>
<svg baseProfile="full" height="360" version="1.1" width="128" xmlns="http://www.w3.org/2000/svg" xmlns:ev="http://www.w3.org/2001/xml-events" xmlns:xlink="http://www.w3.org/1999/xlink"><defs /><rect fill="black" height="24" stroke="lightgray" width="64" x="0" y="0" /><text fill="white" style="font-size:70%; text-anchor:middle; dominant-baseline:central" x="32.0" y="12.0">GND</text><rect fill="#005000" height="24" stroke="red" width="24" x="104" y="0" /><text fill="#FFFFFF" style="font-size:70%; text-anchor:middle; dominant-baseline:central" x="116.0" y="12.0">G35</text><rect fill="#ffc0c0" height="24" stroke="lightgray" width="40" x="64" y="0" /><text fill="#ffffff" style="font-size:50%; text-anchor:middle; dominant-baseline:central" x="84.0" y="12.0">ADC</text><rect fill="black" height="24" stroke="lightgray" width="64" x="0" y="24" /><text fill="white" style="font-size:70%; text-anchor:middle; dominant-baseline:central" x="32.0" y="36.0">GND</text><rect fill="#005000" height="24" stroke="red" width="24" x="104" y="24" /><text fill="#FFFFFF" style="font-size:70%; text-anchor:middle; dominant-baseline:central" x="116.0" y="36.0">G36</text><rect fill="#ffc0c0" height="24" stroke="lightgray" width="40" x="64" y="24" /><text fill="#ffffff" style="font-size:50%; text-anchor:middle; dominant-baseline:central" x="84.0" y="36.0">ADC</text><rect fill="black" height="24" stroke="lightgray" width="64" x="0" y="48" /><text fill="white" style="font-size:70%; text-anchor:middle; dominant-baseline:central" x="32.0" y="60.0">GND</text><rect fill="#c0c0c0" height="24" stroke="lightgray" width="24" x="104" y="48" /><text fill="#000000" style="font-size:70%; text-anchor:middle; dominant-baseline:central" x="116.0" y="60.0">EN</text><rect fill="#c0c0c0" height="24" stroke="lightgray" width="40" x="64" y="48" /><text fill="#000000" style="font-size:50%; text-anchor:middle; dominant-baseline:central" x="84.0" y="60.0">RST</text><rect fill="#ffffff" height="24" stroke="lightgray" width="24" x="0" y="72" /><text fill="#000000" style="font-size:70%; text-anchor:middle; dominant-baseline:central" x="12.0" y="84.0">G23</text><rect fill="#2080ff" height="24" stroke="lightgray" width="40" x="24" y="72" /><text fill="#000000" style="font-size:50%; text-anchor:middle; dominant-baseline:central" x="44.0" y="84.0">MOSI</text><rect fill="#ffffff" height="24" stroke="lightgray" width="24" x="104" y="72" /><text fill="#000000" style="font-size:70%; text-anchor:middle; dominant-baseline:central" x="116.0" y="84.0">G25</text><rect fill="#ff8080" height="24" stroke="lightgray" width="40" x="64" y="72" /><text fill="#ffffff" style="font-size:50%; text-anchor:middle; dominant-baseline:central" x="84.0" y="84.0">DAC</text><rect fill="#005000" height="24" stroke="red" width="24" x="0" y="96" /><text fill="#FFFFFF" style="font-size:70%; text-anchor:middle; dominant-baseline:central" x="12.0" y="108.0">G38</text><rect fill="#2080ff" height="24" stroke="lightgray" width="40" x="24" y="96" /><text fill="#000000" style="font-size:50%; text-anchor:middle; dominant-baseline:central" x="44.0" y="108.0">MISO</text><rect fill="#ffffff" height="24" stroke="lightgray" width="24" x="104" y="96" /><text fill="#000000" style="font-size:70%; text-anchor:middle; dominant-baseline:central" x="116.0" y="108.0">G26</text><rect fill="#ff8080" height="24" stroke="lightgray" width="40" x="64" y="96" /><text fill="#ffffff" style="font-size:50%; text-anchor:middle; dominant-baseline:central" x="84.0" y="108.0">DAC</text><rect fill="#ffffff" height="24" stroke="lightgray" width="24" x="0" y="120" /><text fill="#000000" style="font-size:70%; text-anchor:middle; dominant-baseline:central" x="12.0" y="132.0">G18</text><rect fill="#2080ff" height="24" stroke="lightgray" width="40" x="24" y="120" /><text fill="#000000" style="font-size:50%; text-anchor:middle; dominant-baseline:central" x="44.0" y="132.0">SCK</text><rect fill="#c06000" height="24" stroke="lightgray" width="64" x="64" y="120" /><text fill="#ffffff" style="font-size:70%; text-anchor:middle; dominant-baseline:central" x="96.0" y="132.0">3V3</text><rect fill="#ffffff" height="24" stroke="lightgray" width="24" x="0" y="144" /><text fill="#000000" style="font-size:70%; text-anchor:middle; dominant-baseline:central" x="12.0" y="156.0">G3</text><rect fill="#20a020" height="24" stroke="lightgray" width="40" x="24" y="144" /><text fill="#ffffff" style="font-size:50%; text-anchor:middle; dominant-baseline:central" x="44.0" y="156.0">RXD0</text><rect fill="#ffffff" height="24" stroke="lightgray" width="24" x="104" y="144" /><text fill="#000000" style="font-size:70%; text-anchor:middle; dominant-baseline:central" x="116.0" y="156.0">G1</text><rect fill="#20a020" height="24" stroke="lightgray" width="40" x="64" y="144" /><text fill="#ffffff" style="font-size:50%; text-anchor:middle; dominant-baseline:central" x="84.0" y="156.0">TXD0</text><rect fill="#ffffff" height="24" stroke="lightgray" width="24" x="0" y="168" /><text fill="#000000" style="font-size:70%; text-anchor:middle; dominant-baseline:central" x="12.0" y="180.0">G13</text><rect fill="#20a020" height="24" stroke="lightgray" width="40" x="24" y="168" /><text fill="#ffffff" style="font-size:50%; text-anchor:middle; dominant-baseline:central" x="44.0" y="180.0">RXD2</text><rect fill="#ffffff" height="24" stroke="lightgray" width="24" x="104" y="168" /><text fill="#000000" style="font-size:70%; text-anchor:middle; dominant-baseline:central" x="116.0" y="180.0">G14</text><rect fill="#20a020" height="24" stroke="lightgray" width="40" x="64" y="168" /><text fill="#ffffff" style="font-size:50%; text-anchor:middle; dominant-baseline:central" x="84.0" y="180.0">TXD2</text><rect fill="#ffffff" height="24" stroke="lightgray" width="24" x="0" y="192" /><text fill="#000000" style="font-size:70%; text-anchor:middle; dominant-baseline:central" x="12.0" y="204.0">G21</text><rect fill="#ff1010" height="24" stroke="lightgray" width="40" x="24" y="192" /><text fill="#ffffff" style="font-size:50%; text-anchor:middle; dominant-baseline:central" x="44.0" y="204.0">intSDA</text><rect fill="#ffffff" height="24" stroke="lightgray" width="24" x="104" y="192" /><text fill="#000000" style="font-size:70%; text-anchor:middle; dominant-baseline:central" x="116.0" y="204.0">G22</text><rect fill="#ff1010" height="24" stroke="lightgray" width="40" x="64" y="192" /><text fill="#ffffff" style="font-size:50%; text-anchor:middle; dominant-baseline:central" x="84.0" y="204.0">intSCL</text><rect fill="#ffffff" height="24" stroke="lightgray" width="24" x="0" y="216" /><text fill="#000000" style="font-size:70%; text-anchor:middle; dominant-baseline:central" x="12.0" y="228.0">G32</text><rect fill="#ff1010" height="24" stroke="lightgray" width="40" x="24" y="216" /><text fill="#ffffff" style="font-size:50%; text-anchor:middle; dominant-baseline:central" x="44.0" y="228.0">PA SDA</text><rect fill="#ffffff" height="24" stroke="lightgray" width="24" x="104" y="216" /><text fill="#000000" style="font-size:70%; text-anchor:middle; dominant-baseline:central" x="116.0" y="228.0">G33</text><rect fill="#ff1010" height="24" stroke="lightgray" width="40" x="64" y="216" /><text fill="#ffffff" style="font-size:50%; text-anchor:middle; dominant-baseline:central" x="84.0" y="228.0">PA SCL</text><rect fill="#ffffff" height="24" stroke="lightgray" width="24" x="0" y="240" /><text fill="#000000" style="font-size:70%; text-anchor:middle; dominant-baseline:central" x="12.0" y="252.0">G27</text><rect fill="#c08080" height="24" stroke="lightgray" width="40" x="24" y="240" /><text fill="#000000" style="font-size:50%; text-anchor:middle; dominant-baseline:central" x="44.0" y="252.0">GPIO</text><rect fill="#ffffff" height="24" stroke="lightgray" width="24" x="104" y="240" /><text fill="#000000" style="font-size:70%; text-anchor:middle; dominant-baseline:central" x="116.0" y="252.0">G19</text><rect fill="#c08080" height="24" stroke="lightgray" width="40" x="64" y="240" /><text fill="#000000" style="font-size:50%; text-anchor:middle; dominant-baseline:central" x="84.0" y="252.0">GPIO</text><rect fill="#ffffff" height="24" stroke="lightgray" width="24" x="0" y="264" /><text fill="#000000" style="font-size:70%; text-anchor:middle; dominant-baseline:central" x="12.0" y="276.0">G2</text><rect fill="#ff8080" height="24" stroke="lightgray" width="40" x="24" y="264" /><text fill="#000000" style="font-size:50%; text-anchor:middle; dominant-baseline:central" x="44.0" y="276.0">I2SOUT</text><rect fill="#ffffff" height="24" stroke="lightgray" width="24" x="104" y="264" /><text fill="#000000" style="font-size:70%; text-anchor:middle; dominant-baseline:central" x="116.0" y="276.0">G0</text><rect fill="#ff8080" height="24" stroke="lightgray" width="40" x="64" y="264" /><text fill="#000000" style="font-size:50%; text-anchor:middle; dominant-baseline:central" x="84.0" y="276.0">I2S LRCK</text><rect fill="#660066" height="24" stroke="lightgray" width="24" x="0" y="288" /><text fill="#ffffff" style="font-size:70%; text-anchor:middle; dominant-baseline:central" x="12.0" y="300.0">NC</text><rect fill="#c0a000" height="24" stroke="lightgray" width="40" x="24" y="288" /><text fill="#000000" style="font-size:50%; text-anchor:middle; dominant-baseline:central" x="44.0" y="300.0">HPWR</text><rect fill="#005000" height="24" stroke="red" width="24" x="104" y="288" /><text fill="#FFFFFF" style="font-size:70%; text-anchor:middle; dominant-baseline:central" x="116.0" y="300.0">G34</text><rect fill="#ff8080" height="24" stroke="lightgray" width="40" x="64" y="288" /><text fill="#000000" style="font-size:50%; text-anchor:middle; dominant-baseline:central" x="84.0" y="300.0">PDM DAT</text><rect fill="#660066" height="24" stroke="lightgray" width="24" x="0" y="312" /><text fill="#ffffff" style="font-size:70%; text-anchor:middle; dominant-baseline:central" x="12.0" y="324.0">NC</text><rect fill="#c0a000" height="24" stroke="lightgray" width="40" x="24" y="312" /><text fill="#000000" style="font-size:50%; text-anchor:middle; dominant-baseline:central" x="44.0" y="324.0">HPWR</text><rect fill="#e00000" height="24" stroke="lightgray" width="64" x="64" y="312" /><text fill="#ffffff" style="font-size:70%; text-anchor:middle; dominant-baseline:central" x="96.0" y="324.0">5V</text><rect fill="#660066" height="24" stroke="lightgray" width="24" x="0" y="336" /><text fill="#ffffff" style="font-size:70%; text-anchor:middle; dominant-baseline:central" x="12.0" y="348.0">NC</text><rect fill="#c0a000" height="24" stroke="lightgray" width="40" x="24" y="336" /><text fill="#000000" style="font-size:50%; text-anchor:middle; dominant-baseline:central" x="44.0" y="348.0">HPWR</text><rect fill="#c0c000" height="24" stroke="lightgray" width="64" x="64" y="336" /><text fill="#000000" style="font-size:70%; text-anchor:middle; dominant-baseline:central" x="96.0" y="348.0">BAT</text></svg>