<?xml version="1.0" encoding="utf-8" ?>
<svg baseProfile="full" height="288" version="1.1" width="128" xmlns="http://www.w3.org/2000/svg" xmlns:ev="http://www.w3.org/2001/xml-events" xmlns:xlink="http://www.w3.org/1999/xlink"><defs /><rect fill="#ffffff" height="24" stroke="lightgray" width="24" x="104" y="0" /><text fill="#000000" style="font-size:70%; text-anchor:middle; dominant-baseline:central" x="116.0" y="12.0">G3</text><rect fill="#ffffff" height="24" stroke="lightgray" width="24" x="104" y="24" /><text fill="#000000" style="font-size:70%; text-anchor:middle; dominant-baseline:central" x="116.0" y="36.0">G4</text><rect fill="#c06000" height="24" stroke="lightgray" width="24" x="0" y="48" /><text fill="#ffffff" style="font-size:70%; text-anchor:middle; dominant-baseline:central" x="12.0" y="60.0">3V3</text><rect fill="#ffffff" height="24" stroke="lightgray" width="24" x="104" y="48" /><text fill="#000000" style="font-size:70%; text-anchor:middle; dominant-baseline:central" x="116.0" y="60.0">G5</text><rect fill="#ffffff" height="24" stroke="lightgray" width="24" x="0" y="72" /><text fill="#000000" style="font-size:70%; text-anchor:middle; dominant-baseline:central" x="12.0" y="84.0">G21</text><rect fill="#20a020" height="24" stroke="lightgray" width="40" x="24" y="72" /><text fill="#ffffff" style="font-size:50%; text-anchor:middle; dominant-baseline:central" x="44.0" y="84.0">TXD</text><rect fill="#ffffff" height="24" stroke="lightgray" width="24" x="104" y="72" /><text fill="#000000" style="font-size:70%; text-anchor:middle; dominant-baseline:central" x="116.0" y="84.0">G6</text><rect fill="#ffffff" height="24" stroke="lightgray" width="24" x="0" y="96" /><text fill="#000000" style="font-size:70%; text-anchor:middle; dominant-baseline:central" x="12.0" y="108.0">G20</text><rect fill="#20a020" height="24" stroke="lightgray" width="40" x="24" y="96" /><text fill="#ffffff" style="font-size:50%; text-anchor:middle; dominant-baseline:central" x="44.0" y="108.0">RXD</text><rect fill="#ffffff" height="24" stroke="lightgray" width="24" x="104" y="96" /><text fill="#000000" style="font-size:70%; text-anchor:middle; dominant-baseline:central" x="116.0" y="108.0">G7</text><rect fill="#c0c0c0" height="24" stroke="lightgray" width="24" x="0" y="120" /><text fill="#000000" style="font-size:70%; text-anchor:middle; dominant-baseline:central" x="12.0" y="132.0">EN</text><rect fill="#c0c0c0" height="24" stroke="lightgray" width="40" x="24" y="120" /><text fill="#000000" style="font-size:50%; text-anchor:middle; dominant-baseline:central" x="44.0" y="132.0">RST</text><rect fill="#ffffff" height="24" stroke="lightgray" width="24" x="104" y="120" /><text fill="#000000" style="font-size:70%; text-anchor:middle; dominant-baseline:central" x="116.0" y="132.0">G8</text><rect fill="#ffffff" height="24" stroke="lightgray" width="24" x="0" y="144" /><text fill="#000000" style="font-size:70%; text-anchor:middle; dominant-baseline:central" x="12.0" y="156.0">G9</text><rect fill="#55F534" height="24" stroke="lightgray" width="40" x="24" y="144" /><text fill="#000000" style="font-size:50%; text-anchor:middle; dominant-baseline:central" x="44.0" y="156.0">BTN</text><rect fill="#ffffff" height="24" stroke="lightgray" width="24" x="104" y="144" /><text fill="#000000" style="font-size:70%; text-anchor:middle; dominant-baseline:central" x="116.0" y="156.0">G10</text><rect fill="black" height="24" stroke="lightgray" width="24" x="0" y="168" /><text fill="white" style="font-size:70%; text-anchor:middle; dominant-baseline:central" x="12.0" y="180.0">GND</text><rect fill="#e00000" height="24" stroke="lightgray" width="24" x="104" y="168" /><text fill="#ffffff" style="font-size:70%; text-anchor:middle; dominant-baseline:central" x="116.0" y="180.0">5V</text><rect fill="#ffffff" height="24" stroke="lightgray" width="24" x="0" y="192" /><text fill="#000000" style="font-size:70%; text-anchor:middle; dominant-baseline:central" x="12.0" y="204.0">G18</text><rect fill="#becc8a" height="24" stroke="lightgray" width="40" x="24" y="192" /><text fill="#000000" style="font-size:50%; text-anchor:middle; dominant-baseline:central" x="44.0" y="204.0">D-</text><rect fill="black" height="24" stroke="lightgray" width="24" x="104" y="192" /><text fill="white" style="font-size:70%; text-anchor:middle; dominant-baseline:central" x="116.0" y="204.0">GND</text><rect fill="#ffffff" height="24" stroke="lightgray" width="24" x="0" y="216" /><text fill="#000000" style="font-size:70%; text-anchor:middle; dominant-baseline:central" x="12.0" y="228.0">G19</text><rect fill="#becc8a" height="24" stroke="lightgray" width="40" x="24" y="216" /><text fill="#000000" style="font-size:50%; text-anchor:middle; dominant-baseline:central" x="44.0" y="228.0">D+</text><rect fill="#e00000" height="24" stroke="lightgray" width="24" x="104" y="216" /><text fill="#ffffff" style="font-size:70%; text-anchor:middle; dominant-baseline:central" x="116.0" y="228.0">5V</text><rect fill="#e00000" height="24" stroke="lightgray" width="24" x="0" y="240" /><text fill="#ffffff" style="font-size:70%; text-anchor:middle; dominant-baseline:central" x="12.0" y="252.0">5V</text><rect fill="#ffffff" height="24" stroke="lightgray" width="24" x="104" y="240" /><text fill="#000000" style="font-size:70%; text-anchor:middle; dominant-baseline:central" x="116.0" y="252.0">G1</text><rect fill="#ff1010" height="24" stroke="lightgray" width="40" x="64" y="240" /><text fill="#ffffff" style="font-size:50%; text-anchor:middle; dominant-baseline:central" x="84.0" y="252.0">SDA</text><rect fill="black" height="24" stroke="lightgray" width="24" x="0" y="264" /><text fill="white" style="font-size:70%; text-anchor:middle; dominant-baseline:central" x="12.0" y="276.0">GND</text><rect fill="#ffffff" height="24" stroke="lightgray" width="24" x="104" y="264" /><text fill="#000000" style="font-size:70%; text-anchor:middle; dominant-baseline:central" x="116.0" y="276.0">G0</text><rect fill="#ff1010" height="24" stroke="lightgray" width="40" x="64" y="264" /><text fill="#ffffff" style="font-size:50%; text-anchor:middle; dominant-baseline:central" x="84.0" y="276.0">SCL</text></svg>